# File created by Blade
# Date/Time:  Wed Jan 21 17:10:37 2015
# Frame Rate: 120.000 fps
#------------------------------------------------------
:FULLY-SPECIFIED
:DEGREES
379
root 19.321625 3.478392 -11.894879 -234.755132 3.357563 -180.617616
Spine 54.646594 2.294178 4.107019
Head 14.007443 3.771579 -1.138005
LeftShoulder -8.775301 -13.333863 10.462205
LeftArm -23.684529 38.489564 -86.367531
LeftForeArm 19.424264 0.000000 67.738917
LeftHand -20.257921 0.000000 -9.684307
LeftHandThumb1 -26.253704 0.000000 33.147579
RightShoulder -3.670695 -20.007740 -6.589390
RightArm 17.930067 -36.003604 42.199502
RightForeArm -37.867534 -0.000000 69.386119
RightHand -6.714022 -0.000000 -1.319124
RightHandThumb1 -24.326973 -0.000000 -32.862282
LeftUpLeg -55.071131 14.134777 1.710764
LeftLeg 23.203096 -0.000000 -0.000000
LeftFoot 20.332694 28.288668 3.575747
LeftToeBase 15.007477 -0.000000 -0.000000
RightUpLeg -95.676415 -5.944074 24.758097
RightLeg 136.630520 -0.000000 -0.000000
RightFoot -4.002287 -32.166555 -5.247108
RightToeBase 11.034495 -0.000000 -0.000000
380
root 19.318560 3.467417 -11.922233 -234.694759 3.571589 -180.479333
Spine 54.320887 2.100623 4.110447
Head 13.864721 3.956263 -1.079687
LeftShoulder -9.145894 -13.286911 10.070101
LeftArm -24.097522 38.084688 -85.907178
LeftForeArm 20.080608 -0.000000 68.926343
LeftHand -20.269514 -0.000000 -10.804439
LeftHandThumb1 -26.253704 0.000000 33.147579
RightShoulder -3.896077 -19.825442 -6.219072
RightArm 17.142938 -35.418967 42.493557
RightForeArm -38.447406 -0.000000 69.865848
RightHand -6.096013 -0.000000 -1.270030
RightHandThumb1 -24.326973 -0.000000 -32.862282
LeftUpLeg -54.412341 14.508253 1.848148
LeftLeg 21.815938 -0.000000 -0.000000
LeftFoot 20.884319 28.407329 3.595223
LeftToeBase 14.949283 -0.000000 -0.000000
RightUpLeg -95.709773 -5.983876 25.061002
RightLeg 136.636910 -0.000000 -0.000000
RightFoot -3.836303 -32.124763 -5.521924
RightToeBase 10.171196 -0.000000 -0.000000
381
root 19.307856 3.461616 -11.946641 -234.692023 3.777474 -180.352853
Spine 54.105800 1.887496 4.124776
Head 13.670944 4.175952 -1.071961
LeftShoulder -9.525397 -13.170364 9.707196
LeftArm -24.335373 37.600774 -85.387453
LeftForeArm 20.873188 -0.000000 70.134760
LeftHand -20.254378 0.000000 -11.855850
LeftHandThumb1 -26.253704 0.000000 33.147579
RightShoulder -4.186534 -19.724041 -5.880483
RightArm 16.612260 -34.753871 42.731604
RightForeArm -39.361631 -0.000000 70.145083
RightHand -5.389032 -0.000000 -1.129251
RightHandThumb1 -24.326973 -0.000000 -32.862282
LeftUpLeg -53.682728 14.792091 2.068713
LeftLeg 20.528676 -0.000000 -0.000000
LeftFoot 21.514523 28.662856 3.733240
LeftToeBase 15.004173 -0.000000 -0.000000
RightUpLeg -95.696989 -6.080393 25.295128
RightLeg 136.655858 -0.000000 -0.000000
RightFoot -4.018934 -32.128443 -5.502411
RightToeBase 11.309170 -0.000000 -0.000000
382
root 19.298323 3.456734 -11.970371 -234.711361 3.974052 -180.250626
Spine 53.944644 1.719958 4.135804
Head 13.444034 4.342772 -1.029637
LeftShoulder -9.833581 -13.114392 9.411824
LeftArm -24.624171 37.075172 -84.935260
LeftForeArm 21.634224 -0.000000 71.395646
LeftHand -20.287835 -0.000000 -12.732440
LeftHandThumb1 -26.253704 0.000000 33.147579
RightShoulder -4.437820 -19.672866 -5.598117
RightArm 16.109629 -34.031842 43.051442
RightForeArm -40.038767 -0.000000 70.521321
RightHand -5.532775 -0.000000 -1.315340
RightHandThumb1 -24.326973 -0.000000 -32.862282
LeftUpLeg -52.936053 15.014049 2.349944
LeftLeg 19.348907 -0.000000 -0.000000
LeftFoot 22.116155 29.145863 3.913929
LeftToeBase 14.901876 -0.000000 -0.000000
RightUpLeg -95.657659 -6.163476 25.549122
RightLeg 136.656770 -0.000000 -0.000000
RightFoot -4.031759 -32.096415 -5.529546
RightToeBase 11.681426 -0.000000 -0.000000
383
root 19.288603 3.457463 -11.989981 -234.772892 4.129385 -180.220552
Spine 53.872550 1.667453 4.094802
Head 13.180882 4.372851 -0.937913
LeftShoulder -10.059547 -13.038138 9.213514
LeftArm -24.792513 36.453309 -84.451087
LeftForeArm 22.750473 -0.000000 72.715632
LeftHand -20.477578 -0.000000 -13.592231
LeftHandThumb1 -26.253704 0.000000 33.147579
RightShoulder -4.626889 -19.482449 -5.322199
RightArm 15.288974 -33.224417 43.739299
RightForeArm -40.993032 -0.000000 70.840422
RightHand -4.884115 -0.000000 -1.053012
RightHandThumb1 -24.326973 -0.000000 -32.862282
LeftUpLeg -52.146715 15.252201 2.581492
LeftLeg 18.253748 -0.000000 -0.000000
LeftFoot 22.732964 29.745671 4.146680
LeftToeBase 14.902207 -0.000000 -0.000000
RightUpLeg -95.568141 -6.231812 25.696401
RightLeg 136.668868 -0.000000 -0.000000
RightFoot -4.026841 -32.070240 -5.593865
RightToeBase 12.217335 -0.000000 -0.000000
384
root 19.279427 3.453185 -12.006784 -234.780333 4.316683 -180.182804
Spine 53.757584 1.652019 4.133277
Head 12.950361 4.417519 -0.849330
LeftShoulder -10.197305 -12.951500 9.025396
LeftArm -24.953376 35.702908 -83.970440
LeftForeArm 23.946586 -0.000000 74.152135
LeftHand -20.850594 0.000000 -14.141197
LeftHandThumb1 -26.253704 0.000000 33.147579
RightShoulder -4.923356 -19.531346 -5.008490
RightArm 14.843860 -32.293569 44.183291
RightForeArm -41.495828 -0.000000 71.089184
RightHand -4.694717 -0.000000 -0.948957
RightHandThumb1 -24.326973 -0.000000 -32.862282
LeftUpLeg -51.430381 15.442584 2.888396
LeftLeg 17.245055 -0.000000 -0.000000
LeftFoot 23.425927 30.377456 4.537430
LeftToeBase 14.945494 -0.000000 -0.000000
RightUpLeg -95.505343 -6.251352 25.972801
RightLeg 136.594790 -0.000000 -0.000000
RightFoot -4.260422 -32.486108 -5.311004
RightToeBase 13.027932 -0.000000 -0.000000
385
root 19.256836 3.451953 -12.029267 -234.821987 4.302947 -180.266113
Spine 53.676835 1.702660 3.918152
Head 12.709680 4.389764 -0.656196
LeftShoulder -10.325998 -12.820604 8.973713
LeftArm -24.981219 34.948721 -83.475339
LeftForeArm 24.647865 0.000000 75.555701
LeftHand -20.815893 -0.000000 -15.330791
LeftHandThumb1 -26.253704 0.000000 33.147579
RightShoulder -5.165184 -19.533417 -4.637854
RightArm 14.245930 -31.362107 44.716823
RightForeArm -41.820532 -0.000000 71.420266
RightHand -4.337244 -0.000000 -0.779028
RightHandThumb1 -24.326973 -0.000000 -32.862282
LeftUpLeg -50.664452 15.529926 3.002533
LeftLeg 16.283694 -0.000000 -0.000000
LeftFoot 24.062210 31.149705 4.908668
LeftToeBase 14.973809 -0.000000 -0.000000
RightUpLeg -95.518320 -6.316499 25.937361
RightLeg 136.646162 -0.000000 -0.000000
RightFoot -4.408742 -32.582907 -5.098949
RightToeBase 13.573114 -0.000000 -0.000000
386
root 19.260744 3.451557 -12.039647 -234.815505 4.518870 -180.149970
Spine 53.603450 1.670836 4.012883
Head 12.460859 4.371234 -0.549863
LeftShoulder -10.438364 -12.855543 8.901181
LeftArm -25.173078 34.080323 -83.043120
LeftForeArm 25.478349 -0.000000 77.103273
LeftHand -21.118909 0.000000 -16.209925
LeftHandThumb1 -26.253704 0.000000 33.147579
RightShoulder -5.381673 -19.539047 -4.299431
RightArm 13.779177 -30.424512 45.144216
RightForeArm -41.936391 -0.000000 71.674594
RightHand -4.113187 -0.000000 -0.722992
RightHandThumb1 -24.326973 -0.000000 -32.862282
LeftUpLeg -50.057323 15.737134 3.313237
LeftLeg 15.461723 -0.000000 -0.000000
LeftFoot 24.762080 31.653176 5.430731
LeftToeBase 14.842187 -0.000000 -0.000000
RightUpLeg -95.456990 -6.349471 26.185273
RightLeg 136.609094 -0.000000 -0.000000
RightFoot -4.396967 -32.556188 -5.132760
RightToeBase 13.534420 -0.000000 -0.000000
